<svg width="20" height="20" viewBox="0 0 13 13" fill="none" xmlns="http://www.w3.org/2000/svg">
<path id="Vector (Stroke)" fill-rule="evenodd" clip-rule="evenodd" d="M5.05 1.45C4.09522 1.45 3.17955 1.82928 2.50442 2.50442C1.82928 3.17955 1.45 4.09522 1.45 5.05C1.45 5.52276 1.54312 5.99089 1.72403 6.42766C1.90495 6.86443 2.17012 7.26129 2.50442 7.59558C2.83871 7.92988 3.23557 8.19505 3.67234 8.37597C4.10911 8.55688 4.57724 8.65 5.05 8.65C5.52276 8.65 5.99089 8.55688 6.42766 8.37597C6.86443 8.19505 7.26129 7.92988 7.59558 7.59558C7.92988 7.26129 8.19505 6.86443 8.37597 6.42766C8.55688 5.99089 8.65 5.52276 8.65 5.05C8.65 4.09522 8.27072 3.17955 7.59558 2.50442C6.92045 1.82928 6.00478 1.45 5.05 1.45ZM1.65589 1.65589C2.55606 0.755713 3.77696 0.25 5.05 0.25C6.32304 0.25 7.54394 0.755713 8.44411 1.65589C9.34429 2.55606 9.85 3.77696 9.85 5.05C9.85 5.68034 9.72584 6.30452 9.48462 6.88688C9.32032 7.28353 9.10391 7.6555 8.84176 7.99323L12.0743 11.2257C12.3086 11.4601 12.3086 11.8399 12.0743 12.0743C11.8399 12.3086 11.4601 12.3086 11.2257 12.0743L7.99323 8.84176C7.6555 9.10391 7.28353 9.32032 6.88688 9.48462C6.30452 9.72584 5.68034 9.85 5.05 9.85C4.41966 9.85 3.79548 9.72584 3.21312 9.48462C2.63076 9.2434 2.10161 8.88983 1.65589 8.44411C1.21017 7.99839 0.856601 7.46924 0.615378 6.88688C0.374156 6.30452 0.25 5.68035 0.25 5.05C0.25 3.77696 0.755713 2.55606 1.65589 1.65589Z" fill="#FFDE33"/>
</svg>
